<svg width="1440" height="742" viewBox="0 0 1440 742" fill="none" xmlns="http://www.w3.org/2000/svg">
<path d="M0 742L50 612L44 457C44 446.918 35 295.082 35 285C35 276.935 37.9833 182.719 50 135L0 0V742Z" fill="#00FE4B"/>
<path d="M1440 742L1399 593L1407 404C1411.01 379.804 1422.61 310.743 1413 293C1403.39 275.257 1406.01 188.687 1402 145L1440 0V742Z" fill="#00FE4B"/>
<path d="M50 612L0 742V0L50 135C37.9833 182.719 35 276.935 35 285C35 295.082 44 446.919 44 457M50 612C50 566.297 44 465.065 44 457M50 612L44 457M1440 742L1399 593L1407 404C1411.01 379.804 1422.61 310.743 1413 293C1403.39 275.257 1406.01 188.687 1402 145L1440 0V742Z" stroke="black"/>
</svg>
